<mxfile host="app.diagrams.net" agent="Mozilla/5.0 (Windows NT 10.0; Win64; x64) AppleWebKit/537.36 (KHTML, like Gecko) Chrome/134.0.0.0 Safari/537.36" version="26.1.3">
  <diagram name="第 1 页" id="MFBoS7DKNCcixFCWEFA1">
    <mxGraphModel dx="1434" dy="738" grid="1" gridSize="10" guides="1" tooltips="1" connect="1" arrows="1" fold="1" page="1" pageScale="1" pageWidth="827" pageHeight="1169" math="0" shadow="0">
      <root>
        <mxCell id="0" />
        <mxCell id="1" parent="0" />
        <mxCell id="9ea3I0AohAOz7mJSTd-f-179" value="Emu Module" style="rounded=0;whiteSpace=wrap;html=1;fillColor=#f5f5f5;fontColor=#333333;strokeColor=#666666;verticalAlign=top;fontSize=14;fontStyle=1" vertex="1" parent="1">
          <mxGeometry x="970" y="60" width="600" height="480" as="geometry" />
        </mxCell>
        <mxCell id="9ea3I0AohAOz7mJSTd-f-180" value="Emu Module" style="rounded=0;whiteSpace=wrap;html=1;fillColor=#f5f5f5;fontColor=#333333;strokeColor=#666666;verticalAlign=top;fontStyle=1;fontSize=14;" vertex="1" parent="1">
          <mxGeometry x="20" y="50" width="780" height="530" as="geometry" />
        </mxCell>
        <mxCell id="9ea3I0AohAOz7mJSTd-f-181" value="Trace Control Store" style="swimlane;fillColor=#dae8fc;strokeColor=#6c8ebf;" vertex="1" parent="1">
          <mxGeometry x="40" y="80" width="360" height="140" as="geometry" />
        </mxCell>
        <mxCell id="9ea3I0AohAOz7mJSTd-f-182" value="Group0 SelEp1" style="rounded=0;whiteSpace=wrap;html=1;dashed=1;dashPattern=1 2;fontColor=#7F00FF;" vertex="1" parent="9ea3I0AohAOz7mJSTd-f-181">
          <mxGeometry x="250" y="70" width="50" height="40" as="geometry" />
        </mxCell>
        <mxCell id="9ea3I0AohAOz7mJSTd-f-183" value="Group0 SelEp0" style="rounded=0;whiteSpace=wrap;html=1;dashed=1;dashPattern=1 2;fontColor=#7F00FF;" vertex="1" parent="9ea3I0AohAOz7mJSTd-f-181">
          <mxGeometry x="300" y="70" width="50" height="40" as="geometry" />
        </mxCell>
        <mxCell id="9ea3I0AohAOz7mJSTd-f-184" value="128 X 48b" style="text;html=1;strokeColor=none;fillColor=none;align=center;verticalAlign=middle;whiteSpace=wrap;rounded=0;" vertex="1" parent="9ea3I0AohAOz7mJSTd-f-181">
          <mxGeometry x="150" y="30" width="60" height="30" as="geometry" />
        </mxCell>
        <mxCell id="9ea3I0AohAOz7mJSTd-f-185" value="Group1 SelEp1" style="rounded=0;whiteSpace=wrap;html=1;dashed=1;dashPattern=1 2;fontColor=#7F00FF;fillColor=#E6E6E6;" vertex="1" parent="9ea3I0AohAOz7mJSTd-f-181">
          <mxGeometry x="150" y="70" width="50" height="40" as="geometry" />
        </mxCell>
        <mxCell id="9ea3I0AohAOz7mJSTd-f-186" value="Group1 SelEp0" style="rounded=0;whiteSpace=wrap;html=1;dashed=1;dashPattern=1 2;fontColor=#7F00FF;fillColor=#E6E6E6;" vertex="1" parent="9ea3I0AohAOz7mJSTd-f-181">
          <mxGeometry x="200" y="70" width="50" height="40" as="geometry" />
        </mxCell>
        <mxCell id="9ea3I0AohAOz7mJSTd-f-187" value="Group7 SelEp1" style="rounded=0;whiteSpace=wrap;html=1;dashed=1;dashPattern=1 2;fontColor=#7F00FF;" vertex="1" parent="9ea3I0AohAOz7mJSTd-f-181">
          <mxGeometry x="10" y="70" width="50" height="40" as="geometry" />
        </mxCell>
        <mxCell id="9ea3I0AohAOz7mJSTd-f-188" value="Group7 SelEp0" style="rounded=0;whiteSpace=wrap;html=1;dashed=1;dashPattern=1 2;fontColor=#7F00FF;" vertex="1" parent="9ea3I0AohAOz7mJSTd-f-181">
          <mxGeometry x="60" y="70" width="50" height="40" as="geometry" />
        </mxCell>
        <mxCell id="9ea3I0AohAOz7mJSTd-f-189" value="。。。" style="text;html=1;strokeColor=none;fillColor=none;align=center;verticalAlign=top;whiteSpace=wrap;rounded=0;horizontal=1;" vertex="1" parent="9ea3I0AohAOz7mJSTd-f-181">
          <mxGeometry x="120" y="70" width="30" height="40" as="geometry" />
        </mxCell>
        <mxCell id="9ea3I0AohAOz7mJSTd-f-190" value="NBO&lt;br style=&quot;font-size: 10px;&quot;&gt;1b" style="edgeStyle=orthogonalEdgeStyle;rounded=0;orthogonalLoop=1;jettySize=auto;html=1;fontColor=#7F00FF;fontSize=10;" edge="1" parent="1" source="9ea3I0AohAOz7mJSTd-f-191" target="9ea3I0AohAOz7mJSTd-f-203">
          <mxGeometry relative="1" as="geometry" />
        </mxCell>
        <mxCell id="9ea3I0AohAOz7mJSTd-f-191" value="EP 8n+0" style="rounded=0;whiteSpace=wrap;html=1;fillColor=#ffe6cc;strokeColor=#d79b00;" vertex="1" parent="1">
          <mxGeometry x="50" y="280" width="40" height="40" as="geometry" />
        </mxCell>
        <mxCell id="9ea3I0AohAOz7mJSTd-f-192" value="NBO&lt;br style=&quot;font-size: 10px;&quot;&gt;1b" style="edgeStyle=orthogonalEdgeStyle;rounded=0;orthogonalLoop=1;jettySize=auto;html=1;fontColor=#7F00FF;fontSize=10;" edge="1" parent="1" source="9ea3I0AohAOz7mJSTd-f-193" target="9ea3I0AohAOz7mJSTd-f-203">
          <mxGeometry relative="1" as="geometry" />
        </mxCell>
        <mxCell id="9ea3I0AohAOz7mJSTd-f-193" value="EP 8n+1" style="rounded=0;whiteSpace=wrap;html=1;fillColor=#ffe6cc;strokeColor=#d79b00;" vertex="1" parent="1">
          <mxGeometry x="50" y="330" width="40" height="40" as="geometry" />
        </mxCell>
        <mxCell id="9ea3I0AohAOz7mJSTd-f-194" value="NBO&lt;br style=&quot;font-size: 10px;&quot;&gt;1b" style="edgeStyle=orthogonalEdgeStyle;rounded=0;orthogonalLoop=1;jettySize=auto;html=1;fontColor=#7F00FF;fontSize=10;" edge="1" parent="1" source="9ea3I0AohAOz7mJSTd-f-195" target="9ea3I0AohAOz7mJSTd-f-203">
          <mxGeometry relative="1" as="geometry" />
        </mxCell>
        <mxCell id="9ea3I0AohAOz7mJSTd-f-195" value="EP 8n+7" style="rounded=0;whiteSpace=wrap;html=1;fillColor=#ffe6cc;strokeColor=#d79b00;" vertex="1" parent="1">
          <mxGeometry x="50" y="430" width="40" height="40" as="geometry" />
        </mxCell>
        <mxCell id="9ea3I0AohAOz7mJSTd-f-196" value="。。。" style="text;html=1;strokeColor=none;fillColor=none;align=center;verticalAlign=top;whiteSpace=wrap;rounded=0;horizontal=0;" vertex="1" parent="1">
          <mxGeometry x="50" y="380" width="40" height="40" as="geometry" />
        </mxCell>
        <mxCell id="9ea3I0AohAOz7mJSTd-f-197" style="edgeStyle=orthogonalEdgeStyle;rounded=0;orthogonalLoop=1;jettySize=auto;html=1;fontSize=10;fontColor=#7F00FF;exitX=1;exitY=0.5;exitDx=0;exitDy=-5;exitPerimeter=0;" edge="1" parent="1" source="9ea3I0AohAOz7mJSTd-f-198" target="9ea3I0AohAOz7mJSTd-f-207">
          <mxGeometry relative="1" as="geometry" />
        </mxCell>
        <mxCell id="9ea3I0AohAOz7mJSTd-f-198" value="Mux&lt;br&gt;8:1" style="shadow=0;dashed=0;align=center;html=1;strokeWidth=1;shape=mxgraph.electrical.abstract.mux2;direction=east;fillColor=#ffe6cc;strokeColor=#d79b00;fontColor=#7F00FF;flipV=1;" vertex="1" parent="1">
          <mxGeometry x="240" y="280" width="50.5" height="80.5" as="geometry" />
        </mxCell>
        <mxCell id="9ea3I0AohAOz7mJSTd-f-199" style="edgeStyle=orthogonalEdgeStyle;rounded=0;orthogonalLoop=1;jettySize=auto;html=1;exitX=1;exitY=0.5;exitDx=0;exitDy=-5;exitPerimeter=0;fontSize=10;fontColor=#7F00FF;" edge="1" parent="1" source="9ea3I0AohAOz7mJSTd-f-200" target="9ea3I0AohAOz7mJSTd-f-207">
          <mxGeometry relative="1" as="geometry" />
        </mxCell>
        <mxCell id="9ea3I0AohAOz7mJSTd-f-200" value="Mux&lt;br&gt;8:1" style="shadow=0;dashed=0;align=center;html=1;strokeWidth=1;shape=mxgraph.electrical.abstract.mux2;direction=east;fillColor=#ffe6cc;strokeColor=#d79b00;fontColor=#7F00FF;flipV=1;" vertex="1" parent="1">
          <mxGeometry x="240" y="400.5" width="50.5" height="80.5" as="geometry" />
        </mxCell>
        <mxCell id="9ea3I0AohAOz7mJSTd-f-201" value="8b" style="edgeStyle=orthogonalEdgeStyle;rounded=0;orthogonalLoop=1;jettySize=auto;html=1;fontSize=10;fontColor=#7F00FF;strokeWidth=2;" edge="1" parent="1" source="9ea3I0AohAOz7mJSTd-f-203" target="9ea3I0AohAOz7mJSTd-f-198">
          <mxGeometry relative="1" as="geometry" />
        </mxCell>
        <mxCell id="9ea3I0AohAOz7mJSTd-f-202" value="8b" style="edgeStyle=orthogonalEdgeStyle;rounded=0;orthogonalLoop=1;jettySize=auto;html=1;fontSize=10;fontColor=#7F00FF;strokeWidth=2;" edge="1" parent="1" source="9ea3I0AohAOz7mJSTd-f-203" target="9ea3I0AohAOz7mJSTd-f-200">
          <mxGeometry relative="1" as="geometry" />
        </mxCell>
        <mxCell id="9ea3I0AohAOz7mJSTd-f-203" value="" style="shape=waypoint;sketch=0;fillStyle=solid;size=6;pointerEvents=1;points=[];fillColor=none;resizable=0;rotatable=0;perimeter=centerPerimeter;snapToPoint=1;fontColor=#7F00FF;" vertex="1" parent="1">
          <mxGeometry x="130" y="360.5" width="40" height="40" as="geometry" />
        </mxCell>
        <mxCell id="9ea3I0AohAOz7mJSTd-f-204" value="3b" style="edgeStyle=orthogonalEdgeStyle;rounded=0;orthogonalLoop=1;jettySize=auto;html=1;fontSize=10;fontColor=#7F00FF;" edge="1" parent="1" source="9ea3I0AohAOz7mJSTd-f-185" target="9ea3I0AohAOz7mJSTd-f-200">
          <mxGeometry x="-0.6161" relative="1" as="geometry">
            <Array as="points">
              <mxPoint x="215" y="380" />
              <mxPoint x="265" y="380" />
            </Array>
            <mxPoint as="offset" />
          </mxGeometry>
        </mxCell>
        <mxCell id="9ea3I0AohAOz7mJSTd-f-205" value="3b" style="edgeStyle=orthogonalEdgeStyle;rounded=0;orthogonalLoop=1;jettySize=auto;html=1;fontSize=10;fontColor=#7F00FF;" edge="1" parent="1" source="9ea3I0AohAOz7mJSTd-f-186" target="9ea3I0AohAOz7mJSTd-f-198">
          <mxGeometry relative="1" as="geometry" />
        </mxCell>
        <mxCell id="9ea3I0AohAOz7mJSTd-f-206" value="2b" style="edgeStyle=orthogonalEdgeStyle;rounded=0;orthogonalLoop=1;jettySize=auto;html=1;fontSize=10;fontColor=#7F00FF;" edge="1" parent="1" source="9ea3I0AohAOz7mJSTd-f-207" target="9ea3I0AohAOz7mJSTd-f-221">
          <mxGeometry relative="1" as="geometry" />
        </mxCell>
        <mxCell id="9ea3I0AohAOz7mJSTd-f-207" value="" style="shape=waypoint;sketch=0;fillStyle=solid;size=6;pointerEvents=1;points=[];fillColor=none;resizable=0;rotatable=0;perimeter=centerPerimeter;snapToPoint=1;fontSize=10;fontColor=#7F00FF;" vertex="1" parent="1">
          <mxGeometry x="320" y="360.5" width="40" height="40" as="geometry" />
        </mxCell>
        <mxCell id="9ea3I0AohAOz7mJSTd-f-208" value="Trace Data Store" style="swimlane;fillColor=#dae8fc;strokeColor=#6c8ebf;" vertex="1" parent="1">
          <mxGeometry x="495" y="390" width="180" height="130" as="geometry" />
        </mxCell>
        <mxCell id="9ea3I0AohAOz7mJSTd-f-209" value="1024 X 128 X 16b" style="text;html=1;strokeColor=none;fillColor=none;align=center;verticalAlign=middle;whiteSpace=wrap;rounded=0;" vertex="1" parent="9ea3I0AohAOz7mJSTd-f-208">
          <mxGeometry x="40" y="30" width="100" height="30" as="geometry" />
        </mxCell>
        <mxCell id="9ea3I0AohAOz7mJSTd-f-210" value="G7 Ep1" style="rounded=0;whiteSpace=wrap;html=1;dashed=1;dashPattern=1 2;fontColor=#7F00FF;" vertex="1" parent="9ea3I0AohAOz7mJSTd-f-208">
          <mxGeometry x="10" y="70" width="20" height="40" as="geometry" />
        </mxCell>
        <mxCell id="9ea3I0AohAOz7mJSTd-f-211" value="。。。" style="text;html=1;strokeColor=none;fillColor=none;align=center;verticalAlign=top;whiteSpace=wrap;rounded=0;horizontal=1;" vertex="1" parent="9ea3I0AohAOz7mJSTd-f-208">
          <mxGeometry x="60" y="70" width="30" height="40" as="geometry" />
        </mxCell>
        <mxCell id="9ea3I0AohAOz7mJSTd-f-212" value="G7 Ep0" style="rounded=0;whiteSpace=wrap;html=1;dashed=1;dashPattern=1 2;fontColor=#7F00FF;" vertex="1" parent="9ea3I0AohAOz7mJSTd-f-208">
          <mxGeometry x="30" y="70" width="20" height="40" as="geometry" />
        </mxCell>
        <mxCell id="9ea3I0AohAOz7mJSTd-f-213" value="G1 Ep1" style="rounded=0;whiteSpace=wrap;html=1;dashed=1;dashPattern=1 2;fontColor=#7F00FF;fillColor=#E6E6E6;" vertex="1" parent="9ea3I0AohAOz7mJSTd-f-208">
          <mxGeometry x="90" y="70" width="20" height="40" as="geometry" />
        </mxCell>
        <mxCell id="9ea3I0AohAOz7mJSTd-f-214" value="G1 Ep0" style="rounded=0;whiteSpace=wrap;html=1;dashed=1;dashPattern=1 2;fontColor=#7F00FF;fillColor=#E6E6E6;" vertex="1" parent="9ea3I0AohAOz7mJSTd-f-208">
          <mxGeometry x="110" y="70" width="20" height="40" as="geometry" />
        </mxCell>
        <mxCell id="9ea3I0AohAOz7mJSTd-f-215" value="G0 Ep1" style="rounded=0;whiteSpace=wrap;html=1;dashed=1;dashPattern=1 2;fontColor=#7F00FF;" vertex="1" parent="9ea3I0AohAOz7mJSTd-f-208">
          <mxGeometry x="130" y="70" width="20" height="40" as="geometry" />
        </mxCell>
        <mxCell id="9ea3I0AohAOz7mJSTd-f-216" value="G0 Ep0" style="rounded=0;whiteSpace=wrap;html=1;dashed=1;dashPattern=1 2;fontColor=#7F00FF;" vertex="1" parent="9ea3I0AohAOz7mJSTd-f-208">
          <mxGeometry x="150" y="70" width="20" height="40" as="geometry" />
        </mxCell>
        <mxCell id="9ea3I0AohAOz7mJSTd-f-217" value="step&lt;br&gt;7b" style="edgeStyle=orthogonalEdgeStyle;rounded=0;orthogonalLoop=1;jettySize=auto;html=1;fontSize=10;fontColor=#7F00FF;" edge="1" parent="1" source="9ea3I0AohAOz7mJSTd-f-219" target="9ea3I0AohAOz7mJSTd-f-229">
          <mxGeometry relative="1" as="geometry" />
        </mxCell>
        <mxCell id="9ea3I0AohAOz7mJSTd-f-218" value="WAddr&lt;br&gt;17b" style="edgeStyle=orthogonalEdgeStyle;rounded=0;orthogonalLoop=1;jettySize=auto;html=1;fontSize=10;fontColor=#7F00FF;exitX=1;exitY=0.5;exitDx=0;exitDy=0;exitPerimeter=0;" edge="1" parent="1" source="9ea3I0AohAOz7mJSTd-f-240" target="9ea3I0AohAOz7mJSTd-f-208">
          <mxGeometry relative="1" as="geometry" />
        </mxCell>
        <mxCell id="9ea3I0AohAOz7mJSTd-f-219" value="Sequencer" style="rounded=0;whiteSpace=wrap;html=1;dashed=1;fillColor=#f5f5f5;strokeColor=#666666;fontColor=#333333;" vertex="1" parent="1">
          <mxGeometry x="521" y="135" width="80" height="30" as="geometry" />
        </mxCell>
        <mxCell id="9ea3I0AohAOz7mJSTd-f-220" value="Data&lt;br&gt;16b" style="edgeStyle=orthogonalEdgeStyle;rounded=0;orthogonalLoop=1;jettySize=auto;html=1;entryX=0;entryY=0.5;entryDx=0;entryDy=0;fontSize=10;fontColor=#7F00FF;strokeWidth=2;" edge="1" parent="1" source="9ea3I0AohAOz7mJSTd-f-221" target="9ea3I0AohAOz7mJSTd-f-210">
          <mxGeometry relative="1" as="geometry" />
        </mxCell>
        <mxCell id="9ea3I0AohAOz7mJSTd-f-221" value="" style="shape=waypoint;sketch=0;fillStyle=solid;size=6;pointerEvents=1;points=[];fillColor=none;resizable=0;rotatable=0;perimeter=centerPerimeter;snapToPoint=1;fontSize=10;fontColor=#7F00FF;" vertex="1" parent="1">
          <mxGeometry x="400" y="500" width="40" height="40" as="geometry" />
        </mxCell>
        <mxCell id="9ea3I0AohAOz7mJSTd-f-222" value="2b" style="edgeStyle=orthogonalEdgeStyle;rounded=0;orthogonalLoop=1;jettySize=auto;html=1;fontSize=10;fontColor=#7F00FF;" edge="1" parent="1" source="9ea3I0AohAOz7mJSTd-f-223" target="9ea3I0AohAOz7mJSTd-f-221">
          <mxGeometry relative="1" as="geometry" />
        </mxCell>
        <mxCell id="9ea3I0AohAOz7mJSTd-f-223" value="" style="shape=waypoint;sketch=0;fillStyle=solid;size=6;pointerEvents=1;points=[];fillColor=none;resizable=0;rotatable=0;perimeter=centerPerimeter;snapToPoint=1;fontSize=10;fontColor=#7F00FF;" vertex="1" parent="1">
          <mxGeometry x="320" y="540" width="40" height="40" as="geometry" />
        </mxCell>
        <mxCell id="9ea3I0AohAOz7mJSTd-f-224" value="2b" style="edgeStyle=orthogonalEdgeStyle;rounded=0;orthogonalLoop=1;jettySize=auto;html=1;fontSize=10;fontColor=#7F00FF;" edge="1" parent="1" source="9ea3I0AohAOz7mJSTd-f-225" target="9ea3I0AohAOz7mJSTd-f-221">
          <mxGeometry relative="1" as="geometry" />
        </mxCell>
        <mxCell id="9ea3I0AohAOz7mJSTd-f-225" value="" style="shape=waypoint;sketch=0;fillStyle=solid;size=6;pointerEvents=1;points=[];fillColor=none;resizable=0;rotatable=0;perimeter=centerPerimeter;snapToPoint=1;fontSize=10;fontColor=#7F00FF;" vertex="1" parent="1">
          <mxGeometry x="320" y="460" width="40" height="40" as="geometry" />
        </mxCell>
        <mxCell id="9ea3I0AohAOz7mJSTd-f-226" value="。。。" style="text;html=1;strokeColor=none;fillColor=none;align=center;verticalAlign=top;whiteSpace=wrap;rounded=0;horizontal=0;" vertex="1" parent="1">
          <mxGeometry x="320" y="500" width="40" height="40" as="geometry" />
        </mxCell>
        <mxCell id="9ea3I0AohAOz7mJSTd-f-227" value="RAddr&lt;br&gt;7b" style="edgeStyle=orthogonalEdgeStyle;rounded=0;orthogonalLoop=1;jettySize=auto;html=1;fontSize=10;fontColor=#7F00FF;" edge="1" parent="1" source="9ea3I0AohAOz7mJSTd-f-229" target="9ea3I0AohAOz7mJSTd-f-181">
          <mxGeometry relative="1" as="geometry" />
        </mxCell>
        <mxCell id="9ea3I0AohAOz7mJSTd-f-228" style="edgeStyle=orthogonalEdgeStyle;rounded=0;orthogonalLoop=1;jettySize=auto;html=1;entryX=0;entryY=0.75;entryDx=0;entryDy=0;entryPerimeter=0;strokeWidth=1;fontSize=10;fontColor=#7F00FF;" edge="1" parent="1" source="9ea3I0AohAOz7mJSTd-f-229" target="9ea3I0AohAOz7mJSTd-f-240">
          <mxGeometry relative="1" as="geometry" />
        </mxCell>
        <mxCell id="9ea3I0AohAOz7mJSTd-f-229" value="" style="shape=waypoint;sketch=0;fillStyle=solid;size=6;pointerEvents=1;points=[];fillColor=none;resizable=0;rotatable=0;perimeter=centerPerimeter;snapToPoint=1;fontSize=10;fontColor=#7F00FF;" vertex="1" parent="1">
          <mxGeometry x="441" y="130" width="40" height="40" as="geometry" />
        </mxCell>
        <mxCell id="9ea3I0AohAOz7mJSTd-f-230" value="。。。" style="text;html=1;strokeColor=none;fillColor=none;align=center;verticalAlign=top;whiteSpace=wrap;rounded=0;horizontal=0;" vertex="1" parent="1">
          <mxGeometry x="320" y="410" width="40" height="40" as="geometry" />
        </mxCell>
        <mxCell id="9ea3I0AohAOz7mJSTd-f-231" value="REn" style="edgeStyle=orthogonalEdgeStyle;rounded=0;orthogonalLoop=1;jettySize=auto;html=1;strokeWidth=1;fontSize=10;fontColor=#7F00FF;" edge="1" parent="1" source="9ea3I0AohAOz7mJSTd-f-234" target="9ea3I0AohAOz7mJSTd-f-181">
          <mxGeometry relative="1" as="geometry">
            <Array as="points">
              <mxPoint x="451" y="95" />
              <mxPoint x="451" y="95" />
            </Array>
          </mxGeometry>
        </mxCell>
        <mxCell id="9ea3I0AohAOz7mJSTd-f-232" value="WEn" style="edgeStyle=orthogonalEdgeStyle;rounded=0;orthogonalLoop=1;jettySize=auto;html=1;strokeWidth=1;fontSize=10;fontColor=#7F00FF;" edge="1" parent="1" source="9ea3I0AohAOz7mJSTd-f-234" target="9ea3I0AohAOz7mJSTd-f-208">
          <mxGeometry relative="1" as="geometry">
            <Array as="points">
              <mxPoint x="755" y="445" />
            </Array>
          </mxGeometry>
        </mxCell>
        <mxCell id="9ea3I0AohAOz7mJSTd-f-233" value="save" style="edgeStyle=orthogonalEdgeStyle;rounded=0;orthogonalLoop=1;jettySize=auto;html=1;strokeWidth=1;fontSize=10;fontColor=#7F00FF;" edge="1" parent="1" source="9ea3I0AohAOz7mJSTd-f-234" target="9ea3I0AohAOz7mJSTd-f-243">
          <mxGeometry relative="1" as="geometry" />
        </mxCell>
        <mxCell id="9ea3I0AohAOz7mJSTd-f-234" value="TraceEn" style="rounded=0;whiteSpace=wrap;html=1;fontSize=10;fontColor=#7F00FF;fillColor=#E6E6E6;dashed=1;" vertex="1" parent="1">
          <mxGeometry x="730" y="80" width="50" height="30" as="geometry" />
        </mxCell>
        <mxCell id="9ea3I0AohAOz7mJSTd-f-235" value="" style="edgeStyle=orthogonalEdgeStyle;rounded=0;orthogonalLoop=1;jettySize=auto;html=1;entryX=0;entryY=0.25;entryDx=0;entryDy=0;entryPerimeter=0;strokeWidth=1;fontSize=10;fontColor=#7F00FF;" edge="1" parent="1" source="9ea3I0AohAOz7mJSTd-f-242" target="9ea3I0AohAOz7mJSTd-f-240">
          <mxGeometry relative="1" as="geometry" />
        </mxCell>
        <mxCell id="9ea3I0AohAOz7mJSTd-f-236" value="32b" style="edgeStyle=orthogonalEdgeStyle;rounded=0;orthogonalLoop=1;jettySize=auto;html=1;strokeWidth=1;fontSize=10;fontColor=#7F00FF;" edge="1" parent="1" source="9ea3I0AohAOz7mJSTd-f-239" target="9ea3I0AohAOz7mJSTd-f-242">
          <mxGeometry relative="1" as="geometry" />
        </mxCell>
        <mxCell id="9ea3I0AohAOz7mJSTd-f-237" style="edgeStyle=orthogonalEdgeStyle;rounded=0;orthogonalLoop=1;jettySize=auto;html=1;strokeWidth=1;fontSize=10;fontColor=#7F00FF;" edge="1" parent="1" source="9ea3I0AohAOz7mJSTd-f-239" target="9ea3I0AohAOz7mJSTd-f-243">
          <mxGeometry relative="1" as="geometry" />
        </mxCell>
        <mxCell id="9ea3I0AohAOz7mJSTd-f-238" style="edgeStyle=orthogonalEdgeStyle;rounded=0;orthogonalLoop=1;jettySize=auto;html=1;strokeWidth=1;fontSize=10;fontColor=#7F00FF;" edge="1" parent="1" source="9ea3I0AohAOz7mJSTd-f-239" target="9ea3I0AohAOz7mJSTd-f-244">
          <mxGeometry relative="1" as="geometry" />
        </mxCell>
        <mxCell id="9ea3I0AohAOz7mJSTd-f-239" value="CycleCnt" style="rounded=0;whiteSpace=wrap;html=1;dashed=1;fontSize=10;fillColor=#E6E6E6;fontColor=#7F00FF;" vertex="1" parent="1">
          <mxGeometry x="521" y="180" width="80" height="30" as="geometry" />
        </mxCell>
        <mxCell id="9ea3I0AohAOz7mJSTd-f-240" value="" style="verticalLabelPosition=bottom;shadow=0;dashed=0;align=center;html=1;verticalAlign=top;shape=mxgraph.electrical.logic_gates.logic_gate;operation=or;strokeColor=#d79b00;fillColor=#ffe6cc;direction=south;" vertex="1" parent="1">
          <mxGeometry x="451" y="290.25" width="40" height="60" as="geometry" />
        </mxCell>
        <mxCell id="9ea3I0AohAOz7mJSTd-f-241" value="OR" style="text;html=1;strokeColor=none;fillColor=none;align=center;verticalAlign=middle;whiteSpace=wrap;rounded=0;dashed=1;dashPattern=1 2;" vertex="1" parent="1">
          <mxGeometry x="456" y="310.25" width="30" height="30" as="geometry" />
        </mxCell>
        <mxCell id="9ea3I0AohAOz7mJSTd-f-242" value="&lt;span style=&quot;color: rgb(127, 0, 255); background-color: rgb(255, 255, 255);&quot;&gt;(&amp;amp; 0x3FF) &amp;lt;&amp;lt; 7&lt;/span&gt;" style="rounded=0;whiteSpace=wrap;html=1;fontSize=10;fillColor=#fff2cc;strokeColor=#d6b656;" vertex="1" parent="1">
          <mxGeometry x="521" y="250" width="80" height="20" as="geometry" />
        </mxCell>
        <mxCell id="9ea3I0AohAOz7mJSTd-f-243" value="TraceStartCycle" style="rounded=0;whiteSpace=wrap;html=1;dashed=1;fontSize=10;fillColor=#E6E6E6;fontColor=#7F00FF;" vertex="1" parent="1">
          <mxGeometry x="650" y="165" width="90" height="30" as="geometry" />
        </mxCell>
        <mxCell id="9ea3I0AohAOz7mJSTd-f-244" value="TraceEndCycle" style="rounded=0;whiteSpace=wrap;html=1;dashed=1;fontSize=10;fillColor=#E6E6E6;fontColor=#7F00FF;" vertex="1" parent="1">
          <mxGeometry x="650" y="195" width="90" height="30" as="geometry" />
        </mxCell>
        <mxCell id="9ea3I0AohAOz7mJSTd-f-245" style="edgeStyle=orthogonalEdgeStyle;rounded=0;orthogonalLoop=1;jettySize=auto;html=1;curved=1;" edge="1" parent="1" source="9ea3I0AohAOz7mJSTd-f-246" target="9ea3I0AohAOz7mJSTd-f-275">
          <mxGeometry relative="1" as="geometry" />
        </mxCell>
        <mxCell id="9ea3I0AohAOz7mJSTd-f-246" value="1" style="ellipse;whiteSpace=wrap;html=1;fontFamily=Times New Roman;fontSize=18;fillColor=#eeeeee;strokeColor=#36393d;" vertex="1" parent="1">
          <mxGeometry x="40" y="720" width="70" height="43" as="geometry" />
        </mxCell>
        <mxCell id="9ea3I0AohAOz7mJSTd-f-247" style="edgeStyle=orthogonalEdgeStyle;rounded=0;orthogonalLoop=1;jettySize=auto;html=1;curved=1;" edge="1" parent="1" source="9ea3I0AohAOz7mJSTd-f-249" target="9ea3I0AohAOz7mJSTd-f-278">
          <mxGeometry relative="1" as="geometry" />
        </mxCell>
        <mxCell id="9ea3I0AohAOz7mJSTd-f-248" style="edgeStyle=orthogonalEdgeStyle;curved=1;rounded=0;orthogonalLoop=1;jettySize=auto;html=1;" edge="1" parent="1" source="9ea3I0AohAOz7mJSTd-f-249" target="9ea3I0AohAOz7mJSTd-f-275">
          <mxGeometry relative="1" as="geometry" />
        </mxCell>
        <mxCell id="9ea3I0AohAOz7mJSTd-f-249" value="2" style="ellipse;whiteSpace=wrap;html=1;fontFamily=Times New Roman;fontSize=18;fillColor=#eeeeee;strokeColor=#36393d;" vertex="1" parent="1">
          <mxGeometry x="136" y="720" width="70" height="43" as="geometry" />
        </mxCell>
        <mxCell id="9ea3I0AohAOz7mJSTd-f-250" style="edgeStyle=orthogonalEdgeStyle;rounded=0;orthogonalLoop=1;jettySize=auto;html=1;curved=1;" edge="1" parent="1" source="9ea3I0AohAOz7mJSTd-f-252" target="9ea3I0AohAOz7mJSTd-f-281">
          <mxGeometry relative="1" as="geometry" />
        </mxCell>
        <mxCell id="9ea3I0AohAOz7mJSTd-f-251" style="edgeStyle=orthogonalEdgeStyle;curved=1;rounded=0;orthogonalLoop=1;jettySize=auto;html=1;" edge="1" parent="1" source="9ea3I0AohAOz7mJSTd-f-252" target="9ea3I0AohAOz7mJSTd-f-278">
          <mxGeometry relative="1" as="geometry" />
        </mxCell>
        <mxCell id="9ea3I0AohAOz7mJSTd-f-252" value="3" style="ellipse;whiteSpace=wrap;html=1;fontFamily=Times New Roman;fontSize=18;fillColor=#eeeeee;strokeColor=#36393d;" vertex="1" parent="1">
          <mxGeometry x="230.25" y="720" width="70" height="43" as="geometry" />
        </mxCell>
        <mxCell id="9ea3I0AohAOz7mJSTd-f-253" style="edgeStyle=orthogonalEdgeStyle;rounded=0;orthogonalLoop=1;jettySize=auto;html=1;curved=1;" edge="1" parent="1" source="9ea3I0AohAOz7mJSTd-f-255" target="9ea3I0AohAOz7mJSTd-f-283">
          <mxGeometry relative="1" as="geometry" />
        </mxCell>
        <mxCell id="9ea3I0AohAOz7mJSTd-f-254" style="edgeStyle=orthogonalEdgeStyle;curved=1;rounded=0;orthogonalLoop=1;jettySize=auto;html=1;" edge="1" parent="1" source="9ea3I0AohAOz7mJSTd-f-255" target="9ea3I0AohAOz7mJSTd-f-281">
          <mxGeometry relative="1" as="geometry" />
        </mxCell>
        <mxCell id="9ea3I0AohAOz7mJSTd-f-255" value="4" style="ellipse;whiteSpace=wrap;html=1;fontFamily=Times New Roman;fontSize=18;fillColor=#eeeeee;strokeColor=#36393d;" vertex="1" parent="1">
          <mxGeometry x="327" y="720" width="70" height="43" as="geometry" />
        </mxCell>
        <mxCell id="9ea3I0AohAOz7mJSTd-f-256" style="edgeStyle=orthogonalEdgeStyle;rounded=0;orthogonalLoop=1;jettySize=auto;html=1;curved=1;" edge="1" parent="1" source="9ea3I0AohAOz7mJSTd-f-258" target="9ea3I0AohAOz7mJSTd-f-267">
          <mxGeometry relative="1" as="geometry" />
        </mxCell>
        <mxCell id="9ea3I0AohAOz7mJSTd-f-257" style="edgeStyle=orthogonalEdgeStyle;curved=1;rounded=0;orthogonalLoop=1;jettySize=auto;html=1;" edge="1" parent="1" source="9ea3I0AohAOz7mJSTd-f-258" target="9ea3I0AohAOz7mJSTd-f-283">
          <mxGeometry relative="1" as="geometry" />
        </mxCell>
        <mxCell id="9ea3I0AohAOz7mJSTd-f-258" value="5" style="ellipse;whiteSpace=wrap;html=1;fontFamily=Times New Roman;fontSize=18;fillColor=#eeeeee;strokeColor=#36393d;" vertex="1" parent="1">
          <mxGeometry x="425" y="720" width="70" height="43" as="geometry" />
        </mxCell>
        <mxCell id="9ea3I0AohAOz7mJSTd-f-259" style="edgeStyle=orthogonalEdgeStyle;rounded=0;orthogonalLoop=1;jettySize=auto;html=1;curved=1;" edge="1" parent="1" source="9ea3I0AohAOz7mJSTd-f-261" target="9ea3I0AohAOz7mJSTd-f-267">
          <mxGeometry relative="1" as="geometry" />
        </mxCell>
        <mxCell id="9ea3I0AohAOz7mJSTd-f-260" style="edgeStyle=orthogonalEdgeStyle;curved=1;rounded=0;orthogonalLoop=1;jettySize=auto;html=1;exitX=0.5;exitY=1;exitDx=0;exitDy=0;" edge="1" parent="1" source="9ea3I0AohAOz7mJSTd-f-261" target="9ea3I0AohAOz7mJSTd-f-269">
          <mxGeometry relative="1" as="geometry" />
        </mxCell>
        <mxCell id="9ea3I0AohAOz7mJSTd-f-261" value="6" style="ellipse;whiteSpace=wrap;html=1;fontFamily=Times New Roman;fontSize=18;fillColor=#fff2cc;strokeColor=#d6b656;" vertex="1" parent="1">
          <mxGeometry x="521" y="720" width="70" height="43" as="geometry" />
        </mxCell>
        <mxCell id="9ea3I0AohAOz7mJSTd-f-262" style="edgeStyle=orthogonalEdgeStyle;rounded=0;orthogonalLoop=1;jettySize=auto;html=1;curved=1;" edge="1" parent="1" source="9ea3I0AohAOz7mJSTd-f-264" target="9ea3I0AohAOz7mJSTd-f-269">
          <mxGeometry relative="1" as="geometry" />
        </mxCell>
        <mxCell id="9ea3I0AohAOz7mJSTd-f-263" style="edgeStyle=orthogonalEdgeStyle;curved=1;rounded=0;orthogonalLoop=1;jettySize=auto;html=1;exitX=0.5;exitY=1;exitDx=0;exitDy=0;" edge="1" parent="1" source="9ea3I0AohAOz7mJSTd-f-264" target="9ea3I0AohAOz7mJSTd-f-271">
          <mxGeometry relative="1" as="geometry" />
        </mxCell>
        <mxCell id="9ea3I0AohAOz7mJSTd-f-264" value="7" style="ellipse;whiteSpace=wrap;html=1;fontFamily=Times New Roman;fontSize=18;fillColor=#eeeeee;strokeColor=#36393d;" vertex="1" parent="1">
          <mxGeometry x="620" y="720" width="70" height="43" as="geometry" />
        </mxCell>
        <mxCell id="9ea3I0AohAOz7mJSTd-f-265" style="edgeStyle=orthogonalEdgeStyle;rounded=0;orthogonalLoop=1;jettySize=auto;html=1;exitX=0.5;exitY=1;exitDx=0;exitDy=0;curved=1;" edge="1" parent="1" source="9ea3I0AohAOz7mJSTd-f-267" target="9ea3I0AohAOz7mJSTd-f-288">
          <mxGeometry relative="1" as="geometry" />
        </mxCell>
        <mxCell id="9ea3I0AohAOz7mJSTd-f-266" style="edgeStyle=orthogonalEdgeStyle;rounded=0;orthogonalLoop=1;jettySize=auto;html=1;curved=1;" edge="1" parent="1" source="9ea3I0AohAOz7mJSTd-f-267" target="9ea3I0AohAOz7mJSTd-f-285">
          <mxGeometry relative="1" as="geometry" />
        </mxCell>
        <mxCell id="9ea3I0AohAOz7mJSTd-f-267" value="13" style="ellipse;whiteSpace=wrap;html=1;fontFamily=Times New Roman;fontSize=18;fillColor=#eeeeee;strokeColor=#36393d;" vertex="1" parent="1">
          <mxGeometry x="495" y="820" width="70" height="43" as="geometry" />
        </mxCell>
        <mxCell id="9ea3I0AohAOz7mJSTd-f-268" style="edgeStyle=orthogonalEdgeStyle;rounded=0;orthogonalLoop=1;jettySize=auto;html=1;curved=1;" edge="1" parent="1" source="9ea3I0AohAOz7mJSTd-f-269" target="9ea3I0AohAOz7mJSTd-f-288">
          <mxGeometry relative="1" as="geometry" />
        </mxCell>
        <mxCell id="9ea3I0AohAOz7mJSTd-f-269" value="14" style="ellipse;whiteSpace=wrap;html=1;fontFamily=Times New Roman;fontSize=18;fillColor=#eeeeee;strokeColor=#36393d;" vertex="1" parent="1">
          <mxGeometry x="605" y="820" width="70" height="43" as="geometry" />
        </mxCell>
        <mxCell id="9ea3I0AohAOz7mJSTd-f-270" style="edgeStyle=orthogonalEdgeStyle;rounded=0;orthogonalLoop=1;jettySize=auto;html=1;curved=1;" edge="1" parent="1" source="9ea3I0AohAOz7mJSTd-f-271" target="9ea3I0AohAOz7mJSTd-f-290">
          <mxGeometry relative="1" as="geometry" />
        </mxCell>
        <mxCell id="9ea3I0AohAOz7mJSTd-f-271" value="15" style="ellipse;whiteSpace=wrap;html=1;fontFamily=Times New Roman;fontSize=18;fillColor=#eeeeee;strokeColor=#36393d;" vertex="1" parent="1">
          <mxGeometry x="710" y="820" width="70" height="43" as="geometry" />
        </mxCell>
        <mxCell id="9ea3I0AohAOz7mJSTd-f-272" style="edgeStyle=orthogonalEdgeStyle;rounded=0;orthogonalLoop=1;jettySize=auto;html=1;curved=1;" edge="1" parent="1" source="9ea3I0AohAOz7mJSTd-f-273" target="9ea3I0AohAOz7mJSTd-f-271">
          <mxGeometry relative="1" as="geometry" />
        </mxCell>
        <mxCell id="9ea3I0AohAOz7mJSTd-f-273" value="8" style="ellipse;whiteSpace=wrap;html=1;fontFamily=Times New Roman;fontSize=18;fillColor=#fff2cc;strokeColor=#d6b656;" vertex="1" parent="1">
          <mxGeometry x="720" y="720" width="70" height="43" as="geometry" />
        </mxCell>
        <mxCell id="9ea3I0AohAOz7mJSTd-f-274" style="edgeStyle=orthogonalEdgeStyle;rounded=0;orthogonalLoop=1;jettySize=auto;html=1;curved=1;" edge="1" parent="1" source="9ea3I0AohAOz7mJSTd-f-275" target="9ea3I0AohAOz7mJSTd-f-292">
          <mxGeometry relative="1" as="geometry" />
        </mxCell>
        <mxCell id="9ea3I0AohAOz7mJSTd-f-275" value="9" style="ellipse;whiteSpace=wrap;html=1;fontFamily=Times New Roman;fontSize=18;fillColor=#eeeeee;strokeColor=#36393d;" vertex="1" parent="1">
          <mxGeometry x="80" y="820" width="70" height="43" as="geometry" />
        </mxCell>
        <mxCell id="9ea3I0AohAOz7mJSTd-f-276" style="edgeStyle=orthogonalEdgeStyle;rounded=0;orthogonalLoop=1;jettySize=auto;html=1;curved=1;" edge="1" parent="1" source="9ea3I0AohAOz7mJSTd-f-278" target="9ea3I0AohAOz7mJSTd-f-295">
          <mxGeometry relative="1" as="geometry" />
        </mxCell>
        <mxCell id="9ea3I0AohAOz7mJSTd-f-277" style="edgeStyle=orthogonalEdgeStyle;curved=1;rounded=0;orthogonalLoop=1;jettySize=auto;html=1;exitX=0.5;exitY=1;exitDx=0;exitDy=0;" edge="1" parent="1" source="9ea3I0AohAOz7mJSTd-f-278" target="9ea3I0AohAOz7mJSTd-f-297">
          <mxGeometry relative="1" as="geometry" />
        </mxCell>
        <mxCell id="9ea3I0AohAOz7mJSTd-f-278" value="10" style="ellipse;whiteSpace=wrap;html=1;fontFamily=Times New Roman;fontSize=18;fillColor=#fff2cc;strokeColor=#d6b656;" vertex="1" parent="1">
          <mxGeometry x="170" y="820" width="70" height="43" as="geometry" />
        </mxCell>
        <mxCell id="9ea3I0AohAOz7mJSTd-f-279" style="edgeStyle=orthogonalEdgeStyle;rounded=0;orthogonalLoop=1;jettySize=auto;html=1;curved=1;" edge="1" parent="1" source="9ea3I0AohAOz7mJSTd-f-281" target="9ea3I0AohAOz7mJSTd-f-297">
          <mxGeometry relative="1" as="geometry" />
        </mxCell>
        <mxCell id="9ea3I0AohAOz7mJSTd-f-280" style="edgeStyle=orthogonalEdgeStyle;rounded=0;orthogonalLoop=1;jettySize=auto;html=1;exitX=0.5;exitY=1;exitDx=0;exitDy=0;curved=1;" edge="1" parent="1" source="9ea3I0AohAOz7mJSTd-f-281" target="9ea3I0AohAOz7mJSTd-f-300">
          <mxGeometry relative="1" as="geometry" />
        </mxCell>
        <mxCell id="9ea3I0AohAOz7mJSTd-f-281" value="11" style="ellipse;whiteSpace=wrap;html=1;fontFamily=Times New Roman;fontSize=18;fillColor=#fff2cc;strokeColor=#d6b656;" vertex="1" parent="1">
          <mxGeometry x="280" y="820" width="70" height="43" as="geometry" />
        </mxCell>
        <mxCell id="9ea3I0AohAOz7mJSTd-f-282" style="edgeStyle=orthogonalEdgeStyle;rounded=0;orthogonalLoop=1;jettySize=auto;html=1;curved=1;" edge="1" parent="1" source="9ea3I0AohAOz7mJSTd-f-283" target="9ea3I0AohAOz7mJSTd-f-300">
          <mxGeometry relative="1" as="geometry" />
        </mxCell>
        <mxCell id="9ea3I0AohAOz7mJSTd-f-283" value="12" style="ellipse;whiteSpace=wrap;html=1;fontFamily=Times New Roman;fontSize=18;fillColor=#eeeeee;strokeColor=#36393d;" vertex="1" parent="1">
          <mxGeometry x="386" y="820" width="70" height="43" as="geometry" />
        </mxCell>
        <mxCell id="9ea3I0AohAOz7mJSTd-f-284" style="edgeStyle=orthogonalEdgeStyle;curved=1;rounded=0;orthogonalLoop=1;jettySize=auto;html=1;" edge="1" parent="1" source="9ea3I0AohAOz7mJSTd-f-285" target="9ea3I0AohAOz7mJSTd-f-301">
          <mxGeometry relative="1" as="geometry" />
        </mxCell>
        <mxCell id="9ea3I0AohAOz7mJSTd-f-285" value="20" style="ellipse;whiteSpace=wrap;html=1;fontFamily=Times New Roman;fontSize=18;fillColor=#eeeeee;strokeColor=#36393d;" vertex="1" parent="1">
          <mxGeometry x="489" y="920" width="70" height="43" as="geometry" />
        </mxCell>
        <mxCell id="9ea3I0AohAOz7mJSTd-f-286" style="edgeStyle=orthogonalEdgeStyle;curved=1;rounded=0;orthogonalLoop=1;jettySize=auto;html=1;" edge="1" parent="1" source="9ea3I0AohAOz7mJSTd-f-288" target="9ea3I0AohAOz7mJSTd-f-302">
          <mxGeometry relative="1" as="geometry" />
        </mxCell>
        <mxCell id="9ea3I0AohAOz7mJSTd-f-287" style="edgeStyle=orthogonalEdgeStyle;curved=1;rounded=0;orthogonalLoop=1;jettySize=auto;html=1;" edge="1" parent="1" source="9ea3I0AohAOz7mJSTd-f-288" target="9ea3I0AohAOz7mJSTd-f-303">
          <mxGeometry relative="1" as="geometry" />
        </mxCell>
        <mxCell id="9ea3I0AohAOz7mJSTd-f-288" value="21" style="ellipse;whiteSpace=wrap;html=1;fontFamily=Times New Roman;fontSize=18;fillColor=#fff2cc;strokeColor=#d6b656;" vertex="1" parent="1">
          <mxGeometry x="599" y="920" width="70" height="43" as="geometry" />
        </mxCell>
        <mxCell id="9ea3I0AohAOz7mJSTd-f-289" style="edgeStyle=orthogonalEdgeStyle;curved=1;rounded=0;orthogonalLoop=1;jettySize=auto;html=1;" edge="1" parent="1" source="9ea3I0AohAOz7mJSTd-f-290" target="9ea3I0AohAOz7mJSTd-f-308">
          <mxGeometry relative="1" as="geometry" />
        </mxCell>
        <mxCell id="9ea3I0AohAOz7mJSTd-f-290" value="22" style="ellipse;whiteSpace=wrap;html=1;fontFamily=Times New Roman;fontSize=18;fillColor=#eeeeee;strokeColor=#36393d;" vertex="1" parent="1">
          <mxGeometry x="730" y="920" width="70" height="43" as="geometry" />
        </mxCell>
        <mxCell id="9ea3I0AohAOz7mJSTd-f-291" style="edgeStyle=orthogonalEdgeStyle;curved=1;rounded=0;orthogonalLoop=1;jettySize=auto;html=1;" edge="1" parent="1" source="9ea3I0AohAOz7mJSTd-f-292" target="9ea3I0AohAOz7mJSTd-f-304">
          <mxGeometry relative="1" as="geometry" />
        </mxCell>
        <mxCell id="9ea3I0AohAOz7mJSTd-f-292" value="16" style="ellipse;whiteSpace=wrap;html=1;fontFamily=Times New Roman;fontSize=18;fillColor=#eeeeee;strokeColor=#36393d;" vertex="1" parent="1">
          <mxGeometry x="80" y="920" width="70" height="43" as="geometry" />
        </mxCell>
        <mxCell id="9ea3I0AohAOz7mJSTd-f-293" style="edgeStyle=orthogonalEdgeStyle;curved=1;rounded=0;orthogonalLoop=1;jettySize=auto;html=1;" edge="1" parent="1" source="9ea3I0AohAOz7mJSTd-f-295" target="9ea3I0AohAOz7mJSTd-f-305">
          <mxGeometry relative="1" as="geometry" />
        </mxCell>
        <mxCell id="9ea3I0AohAOz7mJSTd-f-294" style="edgeStyle=orthogonalEdgeStyle;curved=1;rounded=0;orthogonalLoop=1;jettySize=auto;html=1;" edge="1" parent="1" source="9ea3I0AohAOz7mJSTd-f-295" target="9ea3I0AohAOz7mJSTd-f-306">
          <mxGeometry relative="1" as="geometry" />
        </mxCell>
        <mxCell id="9ea3I0AohAOz7mJSTd-f-295" value="17" style="ellipse;whiteSpace=wrap;html=1;fontFamily=Times New Roman;fontSize=18;fillColor=#eeeeee;strokeColor=#36393d;" vertex="1" parent="1">
          <mxGeometry x="164" y="920" width="70" height="43" as="geometry" />
        </mxCell>
        <mxCell id="9ea3I0AohAOz7mJSTd-f-296" style="edgeStyle=orthogonalEdgeStyle;curved=1;rounded=0;orthogonalLoop=1;jettySize=auto;html=1;" edge="1" parent="1" source="9ea3I0AohAOz7mJSTd-f-297" target="9ea3I0AohAOz7mJSTd-f-306">
          <mxGeometry relative="1" as="geometry" />
        </mxCell>
        <mxCell id="9ea3I0AohAOz7mJSTd-f-297" value="18" style="ellipse;whiteSpace=wrap;html=1;fontFamily=Times New Roman;fontSize=18;fillColor=#eeeeee;strokeColor=#36393d;" vertex="1" parent="1">
          <mxGeometry x="274" y="920" width="70" height="43" as="geometry" />
        </mxCell>
        <mxCell id="9ea3I0AohAOz7mJSTd-f-298" style="edgeStyle=orthogonalEdgeStyle;curved=1;rounded=0;orthogonalLoop=1;jettySize=auto;html=1;" edge="1" parent="1" source="9ea3I0AohAOz7mJSTd-f-300" target="9ea3I0AohAOz7mJSTd-f-307">
          <mxGeometry relative="1" as="geometry" />
        </mxCell>
        <mxCell id="9ea3I0AohAOz7mJSTd-f-299" style="edgeStyle=orthogonalEdgeStyle;curved=1;rounded=0;orthogonalLoop=1;jettySize=auto;html=1;" edge="1" parent="1" source="9ea3I0AohAOz7mJSTd-f-300" target="9ea3I0AohAOz7mJSTd-f-301">
          <mxGeometry relative="1" as="geometry" />
        </mxCell>
        <mxCell id="9ea3I0AohAOz7mJSTd-f-300" value="19" style="ellipse;whiteSpace=wrap;html=1;fontFamily=Times New Roman;fontSize=18;fillColor=#fff2cc;strokeColor=#d6b656;" vertex="1" parent="1">
          <mxGeometry x="380" y="920" width="70" height="43" as="geometry" />
        </mxCell>
        <mxCell id="9ea3I0AohAOz7mJSTd-f-301" value="27" style="ellipse;whiteSpace=wrap;html=1;fontFamily=Times New Roman;fontSize=18;fillColor=#eeeeee;strokeColor=#36393d;" vertex="1" parent="1">
          <mxGeometry x="436" y="1010" width="70" height="43" as="geometry" />
        </mxCell>
        <mxCell id="9ea3I0AohAOz7mJSTd-f-302" value="28" style="ellipse;whiteSpace=wrap;html=1;fontFamily=Times New Roman;fontSize=18;fillColor=#eeeeee;strokeColor=#36393d;" vertex="1" parent="1">
          <mxGeometry x="535" y="1010" width="70" height="43" as="geometry" />
        </mxCell>
        <mxCell id="9ea3I0AohAOz7mJSTd-f-303" value="29" style="ellipse;whiteSpace=wrap;html=1;fontFamily=Times New Roman;fontSize=18;fillColor=#eeeeee;strokeColor=#36393d;" vertex="1" parent="1">
          <mxGeometry x="640" y="1010" width="70" height="43" as="geometry" />
        </mxCell>
        <mxCell id="9ea3I0AohAOz7mJSTd-f-304" value="23" style="ellipse;whiteSpace=wrap;html=1;fontFamily=Times New Roman;fontSize=18;fillColor=#fff2cc;strokeColor=#d6b656;" vertex="1" parent="1">
          <mxGeometry x="40" y="1010" width="70" height="43" as="geometry" />
        </mxCell>
        <mxCell id="9ea3I0AohAOz7mJSTd-f-305" value="24" style="ellipse;whiteSpace=wrap;html=1;fontFamily=Times New Roman;fontSize=18;fillColor=#eeeeee;strokeColor=#36393d;" vertex="1" parent="1">
          <mxGeometry x="130" y="1010" width="70" height="43" as="geometry" />
        </mxCell>
        <mxCell id="9ea3I0AohAOz7mJSTd-f-306" value="25" style="ellipse;whiteSpace=wrap;html=1;fontFamily=Times New Roman;fontSize=18;fillColor=#fff2cc;strokeColor=#d6b656;" vertex="1" parent="1">
          <mxGeometry x="230.25" y="1010" width="70" height="43" as="geometry" />
        </mxCell>
        <mxCell id="9ea3I0AohAOz7mJSTd-f-307" value="26" style="ellipse;whiteSpace=wrap;html=1;fontFamily=Times New Roman;fontSize=18;fillColor=#eeeeee;strokeColor=#36393d;" vertex="1" parent="1">
          <mxGeometry x="330" y="1010" width="70" height="43" as="geometry" />
        </mxCell>
        <mxCell id="9ea3I0AohAOz7mJSTd-f-308" value="30" style="ellipse;whiteSpace=wrap;html=1;fontFamily=Times New Roman;fontSize=18;fillColor=#eeeeee;strokeColor=#36393d;" vertex="1" parent="1">
          <mxGeometry x="730" y="1010" width="70" height="43" as="geometry" />
        </mxCell>
        <mxCell id="9ea3I0AohAOz7mJSTd-f-309" style="edgeStyle=orthogonalEdgeStyle;curved=1;rounded=0;orthogonalLoop=1;jettySize=auto;html=1;" edge="1" parent="1" source="9ea3I0AohAOz7mJSTd-f-271" target="9ea3I0AohAOz7mJSTd-f-303">
          <mxGeometry relative="1" as="geometry" />
        </mxCell>
        <mxCell id="9ea3I0AohAOz7mJSTd-f-310" style="edgeStyle=orthogonalEdgeStyle;curved=1;rounded=0;orthogonalLoop=1;jettySize=auto;html=1;" edge="1" parent="1" source="9ea3I0AohAOz7mJSTd-f-246" target="9ea3I0AohAOz7mJSTd-f-304">
          <mxGeometry relative="1" as="geometry" />
        </mxCell>
        <mxCell id="9ea3I0AohAOz7mJSTd-f-311" value="NBO&lt;br style=&quot;font-size: 10px;&quot;&gt;1b" style="edgeStyle=orthogonalEdgeStyle;rounded=0;orthogonalLoop=1;jettySize=auto;html=1;fontColor=#7F00FF;fontSize=10;" edge="1" parent="1" source="9ea3I0AohAOz7mJSTd-f-312" target="9ea3I0AohAOz7mJSTd-f-318">
          <mxGeometry relative="1" as="geometry" />
        </mxCell>
        <mxCell id="9ea3I0AohAOz7mJSTd-f-312" value="EP 0" style="rounded=0;whiteSpace=wrap;html=1;fillColor=#ffe6cc;strokeColor=#d79b00;" vertex="1" parent="1">
          <mxGeometry x="980" y="340.25" width="40" height="40" as="geometry" />
        </mxCell>
        <mxCell id="9ea3I0AohAOz7mJSTd-f-313" value="NBO&lt;br style=&quot;font-size: 10px;&quot;&gt;1b" style="edgeStyle=orthogonalEdgeStyle;rounded=0;orthogonalLoop=1;jettySize=auto;html=1;fontColor=#7F00FF;fontSize=10;" edge="1" parent="1" source="9ea3I0AohAOz7mJSTd-f-314" target="9ea3I0AohAOz7mJSTd-f-318">
          <mxGeometry relative="1" as="geometry" />
        </mxCell>
        <mxCell id="9ea3I0AohAOz7mJSTd-f-314" value="EP 1" style="rounded=0;whiteSpace=wrap;html=1;fillColor=#ffe6cc;strokeColor=#d79b00;" vertex="1" parent="1">
          <mxGeometry x="981" y="390.25" width="40" height="40" as="geometry" />
        </mxCell>
        <mxCell id="9ea3I0AohAOz7mJSTd-f-315" value="NBO&lt;br style=&quot;font-size: 10px;&quot;&gt;1b" style="edgeStyle=orthogonalEdgeStyle;rounded=0;orthogonalLoop=1;jettySize=auto;html=1;fontColor=#7F00FF;fontSize=10;" edge="1" parent="1" source="9ea3I0AohAOz7mJSTd-f-316" target="9ea3I0AohAOz7mJSTd-f-318">
          <mxGeometry relative="1" as="geometry" />
        </mxCell>
        <mxCell id="9ea3I0AohAOz7mJSTd-f-316" value="EP 63" style="rounded=0;whiteSpace=wrap;html=1;fillColor=#ffe6cc;strokeColor=#d79b00;" vertex="1" parent="1">
          <mxGeometry x="980" y="490.25" width="40" height="40" as="geometry" />
        </mxCell>
        <mxCell id="9ea3I0AohAOz7mJSTd-f-317" value="。。。" style="text;html=1;strokeColor=none;fillColor=none;align=center;verticalAlign=top;whiteSpace=wrap;rounded=0;horizontal=0;" vertex="1" parent="1">
          <mxGeometry x="980" y="440.25" width="40" height="40" as="geometry" />
        </mxCell>
        <mxCell id="9ea3I0AohAOz7mJSTd-f-318" value="" style="shape=waypoint;sketch=0;fillStyle=solid;size=6;pointerEvents=1;points=[];fillColor=none;resizable=0;rotatable=0;perimeter=centerPerimeter;snapToPoint=1;fontColor=#7F00FF;" vertex="1" parent="1">
          <mxGeometry x="1060" y="420.75" width="40" height="40" as="geometry" />
        </mxCell>
        <mxCell id="9ea3I0AohAOz7mJSTd-f-319" value="Trace Data Store" style="swimlane;fillColor=#dae8fc;strokeColor=#6c8ebf;" vertex="1" parent="1">
          <mxGeometry x="1201" y="400" width="180" height="120.25" as="geometry" />
        </mxCell>
        <mxCell id="9ea3I0AohAOz7mJSTd-f-320" value="1024 X 32 X 64b" style="text;html=1;strokeColor=none;fillColor=none;align=center;verticalAlign=middle;whiteSpace=wrap;rounded=0;" vertex="1" parent="9ea3I0AohAOz7mJSTd-f-319">
          <mxGeometry x="40" y="30" width="100" height="30" as="geometry" />
        </mxCell>
        <mxCell id="9ea3I0AohAOz7mJSTd-f-321" value="Ep 63" style="rounded=0;whiteSpace=wrap;html=1;dashed=1;dashPattern=1 2;fontColor=#7F00FF;" vertex="1" parent="9ea3I0AohAOz7mJSTd-f-319">
          <mxGeometry x="10" y="70" width="20" height="40" as="geometry" />
        </mxCell>
        <mxCell id="9ea3I0AohAOz7mJSTd-f-322" value="。。。" style="text;html=1;strokeColor=none;fillColor=none;align=center;verticalAlign=top;whiteSpace=wrap;rounded=0;horizontal=1;" vertex="1" parent="9ea3I0AohAOz7mJSTd-f-319">
          <mxGeometry x="60" y="70" width="30" height="40" as="geometry" />
        </mxCell>
        <mxCell id="9ea3I0AohAOz7mJSTd-f-323" value="Ep 62" style="rounded=0;whiteSpace=wrap;html=1;dashed=1;dashPattern=1 2;fontColor=#7F00FF;" vertex="1" parent="9ea3I0AohAOz7mJSTd-f-319">
          <mxGeometry x="30" y="70" width="20" height="40" as="geometry" />
        </mxCell>
        <mxCell id="9ea3I0AohAOz7mJSTd-f-324" value="Ep 3" style="rounded=0;whiteSpace=wrap;html=1;dashed=1;dashPattern=1 2;fontColor=#7F00FF;fillColor=#E6E6E6;" vertex="1" parent="9ea3I0AohAOz7mJSTd-f-319">
          <mxGeometry x="90" y="70" width="20" height="40" as="geometry" />
        </mxCell>
        <mxCell id="9ea3I0AohAOz7mJSTd-f-325" value="Ep 2" style="rounded=0;whiteSpace=wrap;html=1;dashed=1;dashPattern=1 2;fontColor=#7F00FF;fillColor=#E6E6E6;" vertex="1" parent="9ea3I0AohAOz7mJSTd-f-319">
          <mxGeometry x="110" y="70" width="20" height="40" as="geometry" />
        </mxCell>
        <mxCell id="9ea3I0AohAOz7mJSTd-f-326" value="Ep 1" style="rounded=0;whiteSpace=wrap;html=1;dashed=1;dashPattern=1 2;fontColor=#7F00FF;" vertex="1" parent="9ea3I0AohAOz7mJSTd-f-319">
          <mxGeometry x="130" y="70" width="20" height="40" as="geometry" />
        </mxCell>
        <mxCell id="9ea3I0AohAOz7mJSTd-f-327" value="Ep 0" style="rounded=0;whiteSpace=wrap;html=1;dashed=1;dashPattern=1 2;fontColor=#7F00FF;" vertex="1" parent="9ea3I0AohAOz7mJSTd-f-319">
          <mxGeometry x="150" y="70" width="20" height="40" as="geometry" />
        </mxCell>
        <mxCell id="9ea3I0AohAOz7mJSTd-f-328" value="step 7b" style="edgeStyle=orthogonalEdgeStyle;rounded=0;orthogonalLoop=1;jettySize=auto;html=1;fontSize=10;fontColor=#7F00FF;" edge="1" parent="1" source="9ea3I0AohAOz7mJSTd-f-330" target="9ea3I0AohAOz7mJSTd-f-334">
          <mxGeometry relative="1" as="geometry" />
        </mxCell>
        <mxCell id="9ea3I0AohAOz7mJSTd-f-329" value="WAddr&lt;br&gt;15b" style="edgeStyle=orthogonalEdgeStyle;rounded=0;orthogonalLoop=1;jettySize=auto;html=1;fontSize=10;fontColor=#7F00FF;strokeWidth=2;" edge="1" parent="1" source="9ea3I0AohAOz7mJSTd-f-344" target="9ea3I0AohAOz7mJSTd-f-319">
          <mxGeometry relative="1" as="geometry">
            <mxPoint x="1171" y="350.25" as="sourcePoint" />
          </mxGeometry>
        </mxCell>
        <mxCell id="9ea3I0AohAOz7mJSTd-f-330" value="Sequencer" style="rounded=0;whiteSpace=wrap;html=1;dashed=1;fillColor=#f5f5f5;strokeColor=#666666;fontColor=#333333;" vertex="1" parent="1">
          <mxGeometry x="1241" y="120" width="80" height="30" as="geometry" />
        </mxCell>
        <mxCell id="9ea3I0AohAOz7mJSTd-f-331" value="Data&lt;br&gt;64b" style="edgeStyle=orthogonalEdgeStyle;rounded=0;orthogonalLoop=1;jettySize=auto;html=1;entryX=0;entryY=0.5;entryDx=0;entryDy=0;fontSize=10;fontColor=#7F00FF;strokeWidth=4;exitX=0.495;exitY=0.659;exitDx=0;exitDy=0;exitPerimeter=0;" edge="1" parent="1" source="9ea3I0AohAOz7mJSTd-f-318" target="9ea3I0AohAOz7mJSTd-f-321">
          <mxGeometry relative="1" as="geometry">
            <mxPoint x="1120" y="520" as="sourcePoint" />
          </mxGeometry>
        </mxCell>
        <mxCell id="9ea3I0AohAOz7mJSTd-f-332" value="step&lt;br&gt;7b" style="edgeStyle=orthogonalEdgeStyle;rounded=0;orthogonalLoop=1;jettySize=auto;html=1;fontSize=10;fontColor=#7F00FF;entryX=0.75;entryY=0;entryDx=0;entryDy=0;" edge="1" parent="1" source="9ea3I0AohAOz7mJSTd-f-334" target="9ea3I0AohAOz7mJSTd-f-352">
          <mxGeometry relative="1" as="geometry">
            <mxPoint x="1220" y="145.25" as="targetPoint" />
          </mxGeometry>
        </mxCell>
        <mxCell id="9ea3I0AohAOz7mJSTd-f-333" style="edgeStyle=orthogonalEdgeStyle;rounded=0;orthogonalLoop=1;jettySize=auto;html=1;entryX=0.5;entryY=0;entryDx=0;entryDy=0;strokeWidth=1;fontSize=10;fontColor=#7F00FF;" edge="1" parent="1" source="9ea3I0AohAOz7mJSTd-f-334" target="9ea3I0AohAOz7mJSTd-f-354">
          <mxGeometry relative="1" as="geometry" />
        </mxCell>
        <mxCell id="9ea3I0AohAOz7mJSTd-f-334" value="" style="shape=waypoint;sketch=0;fillStyle=solid;size=6;pointerEvents=1;points=[];fillColor=none;resizable=0;rotatable=0;perimeter=centerPerimeter;snapToPoint=1;fontSize=10;fontColor=#7F00FF;" vertex="1" parent="1">
          <mxGeometry x="1261" y="180" width="40" height="40" as="geometry" />
        </mxCell>
        <mxCell id="9ea3I0AohAOz7mJSTd-f-335" value="WEn" style="edgeStyle=orthogonalEdgeStyle;rounded=0;orthogonalLoop=1;jettySize=auto;html=1;strokeWidth=1;fontSize=10;fontColor=#7F00FF;exitX=1;exitY=0.5;exitDx=0;exitDy=0;exitPerimeter=0;entryX=0.25;entryY=0;entryDx=0;entryDy=0;" edge="1" parent="1" source="9ea3I0AohAOz7mJSTd-f-355" target="9ea3I0AohAOz7mJSTd-f-319">
          <mxGeometry relative="1" as="geometry" />
        </mxCell>
        <mxCell id="9ea3I0AohAOz7mJSTd-f-336" value="save" style="edgeStyle=orthogonalEdgeStyle;rounded=0;orthogonalLoop=1;jettySize=auto;html=1;strokeWidth=1;fontSize=10;fontColor=#7F00FF;" edge="1" parent="1" source="9ea3I0AohAOz7mJSTd-f-338" target="9ea3I0AohAOz7mJSTd-f-347">
          <mxGeometry relative="1" as="geometry" />
        </mxCell>
        <mxCell id="9ea3I0AohAOz7mJSTd-f-337" style="edgeStyle=orthogonalEdgeStyle;rounded=0;orthogonalLoop=1;jettySize=auto;html=1;entryX=0;entryY=0.75;entryDx=0;entryDy=0;entryPerimeter=0;exitX=0.5;exitY=1;exitDx=0;exitDy=0;" edge="1" parent="1" source="9ea3I0AohAOz7mJSTd-f-338" target="9ea3I0AohAOz7mJSTd-f-355">
          <mxGeometry relative="1" as="geometry">
            <Array as="points">
              <mxPoint x="1025" y="270" />
              <mxPoint x="1130" y="270" />
            </Array>
          </mxGeometry>
        </mxCell>
        <mxCell id="9ea3I0AohAOz7mJSTd-f-338" value="TraceEn" style="rounded=0;whiteSpace=wrap;html=1;fontSize=10;fontColor=#7F00FF;fillColor=#E6E6E6;dashed=1;" vertex="1" parent="1">
          <mxGeometry x="1000" y="90" width="50" height="30" as="geometry" />
        </mxCell>
        <mxCell id="9ea3I0AohAOz7mJSTd-f-339" value="" style="edgeStyle=orthogonalEdgeStyle;rounded=0;orthogonalLoop=1;jettySize=auto;html=1;entryX=0;entryY=0.25;entryDx=0;entryDy=0;entryPerimeter=0;strokeWidth=1;fontSize=10;fontColor=#7F00FF;" edge="1" parent="1" source="9ea3I0AohAOz7mJSTd-f-346" target="9ea3I0AohAOz7mJSTd-f-344">
          <mxGeometry relative="1" as="geometry" />
        </mxCell>
        <mxCell id="9ea3I0AohAOz7mJSTd-f-340" value="32b" style="edgeStyle=orthogonalEdgeStyle;rounded=0;orthogonalLoop=1;jettySize=auto;html=1;strokeWidth=1;fontSize=10;fontColor=#7F00FF;" edge="1" parent="1" source="9ea3I0AohAOz7mJSTd-f-343" target="9ea3I0AohAOz7mJSTd-f-346">
          <mxGeometry relative="1" as="geometry" />
        </mxCell>
        <mxCell id="9ea3I0AohAOz7mJSTd-f-341" style="edgeStyle=orthogonalEdgeStyle;rounded=0;orthogonalLoop=1;jettySize=auto;html=1;strokeWidth=1;fontSize=10;fontColor=#7F00FF;" edge="1" parent="1" source="9ea3I0AohAOz7mJSTd-f-343" target="9ea3I0AohAOz7mJSTd-f-347">
          <mxGeometry relative="1" as="geometry" />
        </mxCell>
        <mxCell id="9ea3I0AohAOz7mJSTd-f-342" style="edgeStyle=orthogonalEdgeStyle;rounded=0;orthogonalLoop=1;jettySize=auto;html=1;strokeWidth=1;fontSize=10;fontColor=#7F00FF;" edge="1" parent="1" source="9ea3I0AohAOz7mJSTd-f-343" target="9ea3I0AohAOz7mJSTd-f-348">
          <mxGeometry relative="1" as="geometry" />
        </mxCell>
        <mxCell id="9ea3I0AohAOz7mJSTd-f-343" value="CycleCnt" style="rounded=0;whiteSpace=wrap;html=1;dashed=1;fontSize=10;fillColor=#E6E6E6;fontColor=#7F00FF;" vertex="1" parent="1">
          <mxGeometry x="1341" y="175.25" width="80" height="30" as="geometry" />
        </mxCell>
        <mxCell id="9ea3I0AohAOz7mJSTd-f-344" value="" style="verticalLabelPosition=bottom;shadow=0;dashed=0;align=center;html=1;verticalAlign=top;shape=mxgraph.electrical.logic_gates.logic_gate;operation=or;strokeColor=#d79b00;fillColor=#ffe6cc;direction=south;" vertex="1" parent="1">
          <mxGeometry x="1271" y="297.5" width="40" height="45.5" as="geometry" />
        </mxCell>
        <mxCell id="9ea3I0AohAOz7mJSTd-f-345" value="OR" style="text;html=1;strokeColor=none;fillColor=none;align=center;verticalAlign=middle;whiteSpace=wrap;rounded=0;dashed=1;dashPattern=1 2;" vertex="1" parent="1">
          <mxGeometry x="1276" y="305.25" width="30" height="30" as="geometry" />
        </mxCell>
        <mxCell id="9ea3I0AohAOz7mJSTd-f-346" value="&lt;span style=&quot;color: rgb(127, 0, 255); background-color: rgb(255, 255, 255);&quot;&gt;(&amp;amp;0x3FF) &amp;lt;&amp;lt; 5&lt;/span&gt;" style="rounded=0;whiteSpace=wrap;html=1;fontSize=10;fillColor=#fff2cc;strokeColor=#d6b656;" vertex="1" parent="1">
          <mxGeometry x="1341" y="260" width="80" height="20" as="geometry" />
        </mxCell>
        <mxCell id="9ea3I0AohAOz7mJSTd-f-347" value="TraceStartCycle" style="rounded=0;whiteSpace=wrap;html=1;dashed=1;fontSize=10;fillColor=#E6E6E6;fontColor=#7F00FF;" vertex="1" parent="1">
          <mxGeometry x="1470" y="160.25" width="90" height="30" as="geometry" />
        </mxCell>
        <mxCell id="9ea3I0AohAOz7mJSTd-f-348" value="TraceEndCycle" style="rounded=0;whiteSpace=wrap;html=1;dashed=1;fontSize=10;fillColor=#E6E6E6;fontColor=#7F00FF;" vertex="1" parent="1">
          <mxGeometry x="1470" y="190.25" width="90" height="30" as="geometry" />
        </mxCell>
        <mxCell id="9ea3I0AohAOz7mJSTd-f-349" value="5b" style="edgeStyle=orthogonalEdgeStyle;rounded=0;orthogonalLoop=1;jettySize=auto;html=1;entryX=0.25;entryY=0;entryDx=0;entryDy=0;fontSize=10;fontColor=#7F00FF;" edge="1" parent="1" source="9ea3I0AohAOz7mJSTd-f-350" target="9ea3I0AohAOz7mJSTd-f-352">
          <mxGeometry relative="1" as="geometry" />
        </mxCell>
        <mxCell id="9ea3I0AohAOz7mJSTd-f-350" value="maxTraceStep" style="rounded=0;whiteSpace=wrap;html=1;dashed=1;fillColor=#f8cecc;strokeColor=#b85450;" vertex="1" parent="1">
          <mxGeometry x="1090" y="120" width="80" height="30" as="geometry" />
        </mxCell>
        <mxCell id="9ea3I0AohAOz7mJSTd-f-351" style="edgeStyle=orthogonalEdgeStyle;rounded=0;orthogonalLoop=1;jettySize=auto;html=1;entryX=0;entryY=0.25;entryDx=0;entryDy=0;entryPerimeter=0;" edge="1" parent="1" source="9ea3I0AohAOz7mJSTd-f-352" target="9ea3I0AohAOz7mJSTd-f-355">
          <mxGeometry relative="1" as="geometry" />
        </mxCell>
        <mxCell id="9ea3I0AohAOz7mJSTd-f-352" value="&lt;font color=&quot;#7f00ff&quot;&gt;&lt;span style=&quot;background-color: rgb(255, 255, 255);&quot;&gt;CMP &amp;gt;=&lt;/span&gt;&lt;/font&gt;" style="rounded=0;whiteSpace=wrap;html=1;fontSize=10;fillColor=#fff2cc;strokeColor=#d6b656;" vertex="1" parent="1">
          <mxGeometry x="1110" y="220" width="80" height="20" as="geometry" />
        </mxCell>
        <mxCell id="9ea3I0AohAOz7mJSTd-f-353" value="5b" style="edgeStyle=orthogonalEdgeStyle;rounded=0;orthogonalLoop=1;jettySize=auto;html=1;entryX=0;entryY=0.75;entryDx=0;entryDy=0;entryPerimeter=0;fontSize=10;fontColor=#7F00FF;" edge="1" parent="1" source="9ea3I0AohAOz7mJSTd-f-354" target="9ea3I0AohAOz7mJSTd-f-344">
          <mxGeometry relative="1" as="geometry" />
        </mxCell>
        <mxCell id="9ea3I0AohAOz7mJSTd-f-354" value="&lt;font color=&quot;#7f00ff&quot;&gt;&lt;span style=&quot;background-color: rgb(255, 255, 255);&quot;&gt;&amp;amp; 0x1F&lt;/span&gt;&lt;/font&gt;" style="rounded=0;whiteSpace=wrap;html=1;fontSize=10;fillColor=#fff2cc;strokeColor=#d6b656;" vertex="1" parent="1">
          <mxGeometry x="1241" y="220" width="80" height="20" as="geometry" />
        </mxCell>
        <mxCell id="9ea3I0AohAOz7mJSTd-f-355" value="" style="verticalLabelPosition=bottom;shadow=0;dashed=0;align=center;html=1;verticalAlign=top;shape=mxgraph.electrical.logic_gates.logic_gate;operation=and;fillColor=#ffe6cc;strokeColor=#d79b00;direction=south;" vertex="1" parent="1">
          <mxGeometry x="1120" y="295.25" width="40" height="45" as="geometry" />
        </mxCell>
        <mxCell id="9ea3I0AohAOz7mJSTd-f-356" value="AND" style="text;html=1;strokeColor=none;fillColor=none;align=center;verticalAlign=middle;whiteSpace=wrap;rounded=0;dashed=1;dashPattern=1 2;" vertex="1" parent="1">
          <mxGeometry x="1125" y="302.75" width="30" height="30" as="geometry" />
        </mxCell>
      </root>
    </mxGraphModel>
  </diagram>
</mxfile>
